<svg xmlns="http://www.w3.org/2000/svg" xmlns:xlink="http://www.w3.org/1999/xlink" width="205" height="206" viewBox="0 0 205 206">
  <defs>
    <clipPath id="clip-path">
      <rect id="Rectangle_33" data-name="Rectangle 33" width="185.366" height="187.808" fill="#053527"/>
    </clipPath>
  </defs>
  <g id="Group_30" data-name="Group 30" transform="translate(-497 -3777)">
    <ellipse id="Ellipse_6" data-name="Ellipse 6" cx="102.5" cy="103" rx="102.5" ry="103" transform="translate(497 3777)" fill="#ccefaa"/>
    <g id="Group_26" data-name="Group 26" transform="translate(507.674 3786.146)">
      <g id="Group_25" data-name="Group 25" clip-path="url(#clip-path)">
        <path id="Path_58" data-name="Path 58" d="M232.734,191.071c-18.385,4.046-34.806-4.383-38.608-21.4-3.279-14.68,4.337-25.522,11.139-31.251a31.452,31.452,0,0,0-26.1,34.881,17.093,17.093,0,0,0-1.48-1.615c-.5-.468-27.408-22.987-27.542-23.11a5.965,5.965,0,0,1,4.035-10.365,16.937,16.937,0,0,0-11.627,29.258c.5.468,27.408,22.987,27.541,23.11a5.965,5.965,0,0,1-4.034,10.365,16.9,16.9,0,0,0,16.894-16.078,31.452,31.452,0,0,0,50.377,6.105c-.2.033-.4.058-.6.1" transform="translate(-74.995 -75.527)" fill="#053527"/>
        <path id="Path_59" data-name="Path 59" d="M207.723,137.978h-19.1l19.1,15.934Z" transform="translate(-103.074 -75.4)" fill="#053527"/>
        <path id="Path_60" data-name="Path 60" d="M324.175,137.978h-19.1l19.1,15.934Z" transform="translate(-166.711 -75.4)" fill="#053527"/>
        <path id="Path_61" data-name="Path 61" d="M95.27,199.289l-8-3.018V169.125l.078-27.461,11.3-4.262H60.44l11.46,4.32-.015,5.214c-.041.69-.063,1.43-.063,2.227v19.945L71.745,196.3,60.44,200.563H71.822v0H87.265v0h8v0h19.1l-19.1-15.934Z" transform="translate(-33.028 -75.086)" fill="#053527"/>
        <rect id="Rectangle_29" data-name="Rectangle 29" width="0.877" height="10.416" transform="translate(0 80.328) rotate(-81.35)" fill="#053527"/>
        <path id="Path_62" data-name="Path 62" d="M12.388,159.932,2.27,157.458l.273-1.115c8.269-1.216,9.276-1.382,9.726-1.411l0-.015c-1.428-.281-2.969-.631-4.608-1.032L3.4,152.841l.2-.829,10.119,2.474-.26,1.064c-8.646,1.254-9.607,1.388-10.01,1.406l0,.015c1.29.237,3.011.644,4.836,1.09l4.306,1.053Z" transform="translate(-1.24 -83.069)" fill="#053527"/>
        <path id="Path_63" data-name="Path 63" d="M9.379,134.894l-.791,2.221-.75-.267,1.877-5.268.751.268-.792,2.221,9.063,3.231-.3.826Z" transform="translate(-4.283 -71.904)" fill="#053527"/>
        <path id="Path_64" data-name="Path 64" d="M22.216,116.326l-1.493,3.192,3.934,1.841,1.653-3.532.663.453L25,122.485l-9.436-4.415,1.939-4.144.722.337-1.57,3.355L20,119.182l1.494-3.192Z" transform="translate(-8.508 -62.256)" fill="#053527"/>
        <path id="Path_65" data-name="Path 65" d="M29.79,102.836l4.225,2.533-.45.75-8.934-5.356,1.308-2.182a2.344,2.344,0,0,1,3.571-.837c1.352.81,1.541,1.8,1.384,2.474.811-.708,1.733-.469,2.96.267l.355.212a11.037,11.037,0,0,0,2,1.021l-.457.764a10.5,10.5,0,0,1-2.018-1.04l-.3-.177c-1.3-.781-2.139-.937-2.905.341Zm-.665-.4.771-1.286c.678-1.131.244-1.966-.843-2.618a1.623,1.623,0,0,0-2.5.519l-.813,1.357Z" transform="translate(-13.46 -53.146)" fill="#053527"/>
        <path id="Path_66" data-name="Path 66" d="M44.8,87.282,36.52,80.957l.7-.913c8.064,2.2,9.054,2.452,9.478,2.606l.009-.012c-1.2-.83-2.467-1.77-3.808-2.793l-3.49-2.666.518-.678,8.28,6.325-.664.869c-8.424-2.318-9.36-2.58-9.736-2.726l-.009.012c1.087.735,2.5,1.8,3.994,2.938l3.524,2.692Z" transform="translate(-19.957 -41.805)" fill="#053527"/>
        <path id="Path_67" data-name="Path 67" d="M58.6,69.358l1.985,3.07-.607.634-5.76-9.052.789-.824,9.356,5.3-.652.682-3.163-1.841Zm1.238-2.442c-2.471-1.419-3.984-2.286-4.629-2.724l-.024.024c.54.721,1.656,2.428,2.969,4.459Z" transform="translate(-29.631 -34.53)" fill="#053527"/>
        <path id="Path_68" data-name="Path 68" d="M66.045,50.057l-1.774,1.552-.525-.6,4.208-3.683.524.6L66.706,49.48l6.335,7.239-.66.578Z" transform="translate(-34.835 -25.863)" fill="#053527"/>
        <rect id="Rectangle_30" data-name="Rectangle 30" width="0.877" height="10.417" transform="translate(36.318 18.996) rotate(-36.752)" fill="#053527"/>
        <path id="Path_69" data-name="Path 69" d="M99.319,33.336c1.824,2.938,2.215,5.04.345,6.2-1.793,1.113-3.492-.083-5.34-3.061-1.833-2.952-1.976-5-.273-6.056,1.8-1.116,3.422-.056,5.268,2.917m-4.236,2.636c1.663,2.679,3.037,3.6,4.195,2.881,1.188-.737.945-2.337-.716-5.011-1.718-2.767-2.959-3.46-4.113-2.744-1.13.7-.963,2.3.634,4.873" transform="translate(-50.743 -16.386)" fill="#053527"/>
        <path id="Path_70" data-name="Path 70" d="M115.164,29.143l-4.457-9.417,1.037-.491c6.157,5.655,6.921,6.331,7.228,6.663l.014-.006c-.682-1.286-1.381-2.7-2.1-4.229L115,17.692l.771-.365,4.457,9.417-.99.469c-6.423-5.924-7.134-6.585-7.4-6.887l-.014.006c.63,1.152,1.4,2.744,2.2,4.443l1.9,4.007Z" transform="translate(-60.498 -9.469)" fill="#053527"/>
        <path id="Path_71" data-name="Path 71" d="M137.66,18.078l.361,3.639-.83.286-.982-10.683,1.079-.371,5.9,8.987-.892.307-1.972-3.083Zm2.218-1.6c-1.549-2.392-2.5-3.855-2.871-4.54l-.031.011c.149.888.361,2.916.6,5.323Z" transform="translate(-74.434 -5.983)" fill="#053527"/>
        <path id="Path_72" data-name="Path 72" d="M153.275,6.3l.854-.2,2.228,9.368,3.675-.874.029.805-4.375,1.04Z" transform="translate(-83.76 -3.331)" fill="#053527"/>
        <path id="Path_73" data-name="Path 73" d="M185.192,8.33c.166,1.137.807,1.981,2.016,1.889,1.153-.087,1.731-.737,1.629-2.089-.089-1.179-.586-1.76-2.089-2.351C185.119,5.146,184.34,4.49,184.227,3a2.357,2.357,0,0,1,2.3-2.67A2.339,2.339,0,0,1,189.161,2.7l-.867.065C188.21,2.3,187.958.99,186.538,1.1a1.481,1.481,0,0,0-1.431,1.756c.082,1.085.605,1.562,1.986,2.1,1.865.732,2.533,1.563,2.644,3.04a2.522,2.522,0,0,1-2.494,2.992c-1.969.149-2.736-1.1-2.936-2.589Z" transform="translate(-100.669 -0.174)" fill="#053527"/>
        <path id="Path_74" data-name="Path 74" d="M205.014,0l2.521.07a2.55,2.55,0,0,1,2.594,2.9A2.672,2.672,0,0,1,207.2,5.88l-1.468-.041-.128,4.6-.876-.024Zm.736,5.067,1.38.039c1.327.037,2.055-.662,2.1-2.163a1.816,1.816,0,0,0-1.835-2.1L205.869.8Z" transform="translate(-111.875)" fill="#053527"/>
        <rect id="Rectangle_31" data-name="Rectangle 31" width="10.417" height="0.877" transform="translate(101.571 10.905) rotate(-83.648)" fill="#053527"/>
        <path id="Path_75" data-name="Path 75" d="M236.989,8.534l-.955,4.834-.858-.17L237.2,2.975l2.5.493a2.344,2.344,0,0,1,2,3.078c-.305,1.547-1.169,2.058-1.86,2.14.94.523,1.027,1.472.75,2.876l-.08.406a11.114,11.114,0,0,0-.286,2.224l-.874-.173a10.427,10.427,0,0,1,.3-2.25l.067-.338c.295-1.489.159-2.331-1.3-2.62Zm.151-.76,1.47.291c1.295.255,1.934-.435,2.18-1.68a1.623,1.623,0,0,0-1.334-2.173L237.9,3.9Z" transform="translate(-128.516 -1.626)" fill="#053527"/>
        <rect id="Rectangle_32" data-name="Rectangle 32" width="10.419" height="0.877" transform="translate(115.362 13.55) rotate(-73.776)" fill="#053527"/>
        <path id="Path_76" data-name="Path 76" d="M271.168,12.419l-2.211-.817.276-.747,5.246,1.937-.276.748-2.211-.817-3.334,9.026-.823-.3Z" transform="translate(-146.362 -5.932)" fill="#053527"/>
        <path id="Path_77" data-name="Path 77" d="M282.381,26.418a1.882,1.882,0,0,0,.8,2.645c1.041.5,1.867.229,2.456-.991.514-1.065.374-1.816-.63-3.081-1.091-1.364-1.437-2.322-.787-3.668a2.471,2.471,0,1,1,4.418,2.214l-.783-.378a1.681,1.681,0,0,0-.683-2.323,1.481,1.481,0,0,0-2.118.8c-.473.979-.259,1.654.665,2.812,1.247,1.568,1.408,2.621.765,3.955a2.523,2.523,0,0,1-3.657,1.339c-1.778-.858-1.815-2.325-1.243-3.712Z" transform="translate(-153.696 -10.859)" fill="#053527"/>
        <path id="Path_78" data-name="Path 78" d="M313.619,45.27c-.4.492-1.987,2.239-3.94.86-2.21-1.559-.582-4.146.8-6.106,1.674-2.373,3.627-3.873,5.481-2.566,1.976,1.395.716,3.377.407,3.85l-.734-.518c.189-.3,1.13-1.77-.156-2.677-1.484-1.047-3.143.89-4.238,2.44-1.317,1.867-2.467,3.949-1.069,4.934,1.219.86,2.345-.295,2.713-.737Z" transform="translate(-168.636 -20.205)" fill="#053527"/>
        <path id="Path_79" data-name="Path 79" d="M331.146,56.811c-2.291,2.591-4.192,3.568-5.842,2.11-1.58-1.4-.922-3.368,1.4-5.993,2.3-2.6,4.221-3.328,5.724-2,1.585,1.4,1.037,3.262-1.282,5.883m-3.741-3.3c-2.089,2.362-2.577,3.943-1.556,4.846,1.048.927,2.51.234,4.595-2.123,2.157-2.44,2.465-3.828,1.448-4.728-1-.881-2.482-.261-4.487,2.006" transform="translate(-177.296 -27.475)" fill="#053527"/>
        <path id="Path_80" data-name="Path 80" d="M337.329,70.888l7.747-6.968.768.854c-3.655,7.52-4.084,8.444-4.314,8.833l.01.012c1.037-1.022,2.2-2.1,3.45-3.227l3.266-2.937.571.634-7.747,6.968-.733-.814c3.837-7.852,4.267-8.722,4.48-9.065l-.01-.011c-.923.933-2.23,2.126-3.627,3.382l-3.3,2.966Z" transform="translate(-184.339 -34.93)" fill="#053527"/>
        <path id="Path_81" data-name="Path 81" d="M354.176,87.643a1.883,1.883,0,0,0-.561,2.705c.676.937,1.533,1.091,2.631.3.96-.691,1.2-1.418.917-3.008-.308-1.72-.156-2.726,1.057-3.6a2.471,2.471,0,1,1,2.827,4.052l-.508-.706a1.681,1.681,0,0,0,.507-2.367,1.482,1.482,0,0,0-2.245-.305c-.882.635-1.016,1.331-.755,2.79.348,1.973-.013,2.976-1.215,3.841a2.523,2.523,0,0,1-3.853-.567c-1.154-1.6-.487-2.909.678-3.855Z" transform="translate(-192.564 -45.639)" fill="#053527"/>
        <path id="Path_82" data-name="Path 82" d="M372.023,100.129l-6.4,3.644c-1.092.622-1.925,1.53-1.2,2.8.732,1.285,1.768,1.12,3.035.4l6.387-3.639.434.762-6.4,3.648c-1.655.943-3.119,1-4.15-.806-.986-1.729-.272-2.949,1.375-3.888l6.48-3.691Z" transform="translate(-198.52 -54.295)" fill="#053527"/>
        <path id="Path_83" data-name="Path 83" d="M378.27,128.181c1.846-.771,3.631-1.483,4.626-1.865l-.008-.019c-1.752.308-6.444,1.095-9.8,1.534l-.34-.813c2.291-1.68,6.466-4.654,8.06-5.75l-.015-.033c-1.093.522-3.231,1.465-4.873,2.15l-3.992,1.667-.327-.783,9.614-4.013.5,1.206c-2.785,2.192-6.447,4.739-7.548,5.483l.006.014c1.014-.219,5.852-1,9.252-1.4l.5,1.206-9.614,4.013-.336-.808Z" transform="translate(-203.067 -65.716)" fill="#053527"/>
        <path id="Path_84" data-name="Path 84" d="M386.59,151.489l-.973-3.387-4.175,1.2,1.078,3.747-.8.095-1.284-4.461,10.011-2.879,1.264,4.4-.766.22-1.024-3.558-3.547,1.02.974,3.387Z" transform="translate(-207.898 -79.677)" fill="#053527"/>
        <path id="Path_85" data-name="Path 85" d="M389.978,167.212l-4.849.874-.155-.862,10.255-1.846.451,2.5a2.344,2.344,0,0,1-2.139,2.981c-1.551.279-2.342-.338-2.67-.952-.145,1.065-1,1.493-2.405,1.747l-.406.073a11.111,11.111,0,0,0-2.176.545l-.158-.877a10.47,10.47,0,0,1,2.2-.545l.339-.061c1.494-.268,2.228-.7,1.964-2.169Zm.763-.137.265,1.475c.234,1.3,1.11,1.642,2.359,1.417a1.623,1.623,0,0,0,1.537-2.033l-.28-1.558Z" transform="translate(-210.375 -90.374)" fill="#053527"/>
        <path id="Path_86" data-name="Path 86" d="M138.856,386.641l-2.094,3.538-.942-.293,6.219-10.337,1.225.381L142.629,392l-1.013-.314.265-4.107Zm3.078.02c.188-3.2.3-5.157.419-6.026l-.035-.012c-.456.9-1.613,2.885-3,5.226Z" transform="translate(-74.22 -207.411)" fill="#053527"/>
        <path id="Path_87" data-name="Path 87" d="M162.965,395.552l-.369-11.944,1.025.172c.123,4.772.227,9.122.138,10.524l.017,0c.39-1.351,2.739-7.131,3.783-9.868l.987.165c.1,2.869.4,9.238.331,10.522l.034.005c.556-1.843,2.715-7.145,3.721-9.844l.985.165-4.445,11.138-1.093-.182c-.084-2.806-.342-8.848-.292-10.426l-.02,0c-.528,1.677-2.7,7.11-3.738,9.751Z" transform="translate(-88.853 -209.629)" fill="#053527"/>
        <path id="Path_88" data-name="Path 88" d="M192.417,395.673l-1.074,3.968-.986-.031,3.235-11.621,1.282.039,2.611,11.8-1.06-.033-.84-4.028Zm2.972-.8c-.672-3.133-1.085-5.05-1.2-5.92h-.037c-.2.993-.786,3.211-1.495,5.835Z" transform="translate(-104.024 -212.023)" fill="#053527"/>
        <path id="Path_89" data-name="Path 89" d="M216.041,393.7l.476,5.521-.981.084-1.006-11.676,2.852-.246a2.636,2.636,0,0,1,3.117,2.7c.153,1.767-.62,2.588-1.342,2.893,1.179.273,1.57,1.27,1.708,2.874l.04.464a12.492,12.492,0,0,0,.384,2.492l-1,.086a11.8,11.8,0,0,1-.381-2.524l-.034-.386c-.146-1.7-.556-2.568-2.226-2.424Zm-.075-.868,1.68-.145c1.479-.127,1.954-1.073,1.831-2.494-.106-1.235-.745-2.051-2.119-1.932l-1.773.153Z" transform="translate(-117.233 -211.68)" fill="#053527"/>
        <path id="Path_90" data-name="Path 90" d="M235.93,384.8l2.389-.5c2.534-.532,4.119,1.047,4.872,4.624.82,3.9.206,6.285-2.655,6.886l-2.195.462Zm3.2,10.41,1.167-.245c2.277-.479,2.6-2.46,1.9-5.775-.672-3.194-1.858-4.418-3.935-3.981l-1.184.249Z" transform="translate(-128.928 -209.951)" fill="#053527"/>
        <path id="Path_91" data-name="Path 91" d="M261.348,387.089c.5,1.193,1.43,1.933,2.723,1.5,1.231-.415,1.68-1.286,1.192-2.73-.425-1.259-1.129-1.753-2.931-1.979-1.951-.237-2.982-.733-3.521-2.327a2.78,2.78,0,1,1,5.292-1.7l-.927.313a1.891,1.891,0,0,0-2.378-1.328,1.665,1.665,0,0,0-1.069,2.311c.391,1.159,1.095,1.532,2.749,1.735,2.236.278,3.194,1,3.728,2.575a2.838,2.838,0,0,1-1.883,3.955c-2.1.711-3.289-.438-3.921-2Z" transform="translate(-141.337 -206.462)" fill="#053527"/>
        <path id="Path_92" data-name="Path 92" d="M286.832,283.79l-.382-.823a88.052,88.052,0,0,0,51-79.889c0-1.08-.02-2.175-.059-3.254l.906-.033c.04,1.089.06,2.2.06,3.286a88.96,88.96,0,0,1-51.521,80.712" transform="translate(-156.535 -109.18)" fill="#053527"/>
        <path id="Path_93" data-name="Path 93" d="M59.808,283.618A88.956,88.956,0,0,1,8.662,203.081c0-1.09.02-2.2.059-3.284l.906.033c-.039,1.078-.059,2.172-.059,3.251A88.047,88.047,0,0,0,60.194,282.8Z" transform="translate(-4.733 -109.182)" fill="#053527"/>
      </g>
    </g>
  </g>
</svg>
