<svg id="Group_24" data-name="Group 24" xmlns="http://www.w3.org/2000/svg" xmlns:xlink="http://www.w3.org/1999/xlink" width="369" height="350" viewBox="0 0 369 350">
  <defs>
    <clipPath id="clip-path">
      <rect id="Rectangle_25" data-name="Rectangle 25" width="369" height="350" fill="none" stroke="#c3a25d" stroke-width="1"/>
    </clipPath>
  </defs>
  <g id="Group_23" data-name="Group 23" clip-path="url(#clip-path)">
    <path id="Path_57" data-name="Path 57" d="M252.778,301.389a126,126,0,0,1-112-68.056h112l19.444-38.889H127.944a122.306,122.306,0,0,1,0-38.889H252.778l19.444-38.889H140.778a126.141,126.141,0,0,1,194.25-37.528l34.417-34.417A174.125,174.125,0,0,0,252.778,0C176.556,0,112,48.806,87.889,116.667H19.444L0,155.556H78.944a162.621,162.621,0,0,0,0,38.889h-59.5L0,233.333H87.889C112,301.194,176.556,350,252.778,350a173.754,173.754,0,0,0,116.667-44.722l-34.611-34.417a124.551,124.551,0,0,1-82.056,30.528" fill="none" stroke="#c3a25d" stroke-width="1"/>
  </g>
</svg>
