<svg xmlns="http://www.w3.org/2000/svg" xmlns:xlink="http://www.w3.org/1999/xlink" width="310.964" height="65" viewBox="0 0 310.964 65">
  <defs>
    <clipPath id="clip-path">
      <rect id="Rectangle_8" data-name="Rectangle 8" width="310.964" height="65" fill="none"/>
    </clipPath>
  </defs>
  <g id="Group_65" data-name="Group 65" transform="translate(-627 -471)">
    <g id="Group_3" data-name="Group 3" transform="translate(627 471)">
      <rect id="Rectangle_4" data-name="Rectangle 4" width="1.524" height="18.091" transform="translate(142.844 0.384)" fill="#fff"/>
      <g id="Group_2" data-name="Group 2">
        <g id="Group_1" data-name="Group 1" clip-path="url(#clip-path)">
          <path id="Path_1" data-name="Path 1" d="M318.022,18.915V.824h1.994c5.463,13.448,6.159,15.078,6.394,15.826h.027c-.115-2.526-.159-5.271-.159-8.2V.824h1.481V18.915h-1.9c-5.681-14.069-6.306-15.635-6.5-16.308h-.027c.133,2.275.156,5.346.156,8.609v7.7Z" transform="translate(-169.885 -0.44)" fill="#fff"/>
          <path id="Path_2" data-name="Path 2" d="M346.991,2.208H342.9V.824h9.711V2.208h-4.094V18.915h-1.523Z" transform="translate(-183.173 -0.44)" fill="#fff"/>
          <path id="Path_3" data-name="Path 3" d="M375.675,10h-6.121V17.54h6.771l-.224,1.376H368.04V.825h7.946V2.208h-6.431v6.41h6.121Z" transform="translate(-196.605 -0.44)" fill="#fff"/>
          <path id="Path_4" data-name="Path 4" d="M392.228,10.361v8.554h-1.52V.824h4.42c2.945,0,4.435,1.724,4.435,4.571,0,2.737-1.3,3.9-2.448,4.27,1.777.576,2.245,2.162,2.245,4.647v.718a19.284,19.284,0,0,0,.261,3.884h-1.546a18.171,18.171,0,0,1-.252-3.933v-.6c0-2.635-.514-4.023-3.1-4.023Zm0-1.346h2.6c2.29,0,3.147-1.392,3.147-3.594,0-1.914-.874-3.252-3-3.252h-2.747Z" transform="translate(-208.714 -0.44)" fill="#fff"/>
          <path id="Path_5" data-name="Path 5" d="M416.288,18.915V.824h1.994c5.463,13.448,6.159,15.078,6.394,15.826h.027c-.115-2.526-.159-5.271-.159-8.2V.824h1.481V18.915h-1.9c-5.681-14.069-6.306-15.635-6.5-16.308H417.6c.133,2.275.156,5.346.156,8.609v7.7Z" transform="translate(-222.378 -0.44)" fill="#fff"/>
          <path id="Path_6" data-name="Path 6" d="M444.866,12.739,443.4,18.915h-1.523L446.31.824h1.98l4.6,18.091h-1.638l-1.491-6.176Zm4.548-1.38c-1.188-4.8-1.917-7.742-2.143-9.077h-.057c-.257,1.541-1.057,4.992-2.026,9.077Z" transform="translate(-236.047 -0.44)" fill="#fff"/>
          <path id="Path_7" data-name="Path 7" d="M467.126,2.208h-4.094V.824h9.711V2.208h-4.094V18.915h-1.523Z" transform="translate(-247.349 -0.44)" fill="#fff"/>
          <rect id="Rectangle_5" data-name="Rectangle 5" width="1.524" height="18.091" transform="translate(227.395 0.384)" fill="#fff"/>
          <path id="Path_8" data-name="Path 8" d="M508.238,9.419c0,6.006-1.348,9.464-5.171,9.464-3.664,0-5.074-3.32-5.074-9.406,0-6.033,1.662-9.185,5.144-9.185,3.673,0,5.1,3.051,5.1,9.127m-8.664.01c0,5.476,1.184,8.092,3.551,8.092,2.429,0,3.533-2.582,3.533-8.047,0-5.656-1.2-7.815-3.555-7.815-2.308,0-3.529,2.515-3.529,7.77" transform="translate(-266.025 -0.156)" fill="#fff"/>
          <path id="Path_9" data-name="Path 9" d="M526.488,18.915V.824h1.994c5.463,13.448,6.159,15.078,6.394,15.826h.027c-.115-2.526-.159-5.271-.159-8.2V.824h1.481V18.915h-1.9c-5.681-14.069-6.306-15.635-6.5-16.308H527.8c.133,2.275.156,5.346.156,8.609v7.7Z" transform="translate(-281.247 -0.44)" fill="#fff"/>
          <path id="Path_10" data-name="Path 10" d="M555.065,12.739,553.6,18.915h-1.523L556.509.824h1.98l4.6,18.091h-1.638l-1.49-6.176Zm4.548-1.38c-1.188-4.8-1.917-7.742-2.143-9.077h-.057c-.257,1.541-1.057,4.992-2.026,9.077Z" transform="translate(-294.914 -0.44)" fill="#fff"/>
          <path id="Path_11" data-name="Path 11" d="M580.331.824h1.524v16.72h6.56l-.275,1.371h-7.809Z" transform="translate(-310.009 -0.44)" fill="#fff"/>
          <path id="Path_12" data-name="Path 12" d="M305.714,63.6c.137,1.99,1.138,3.535,3.243,3.535,2.007,0,3.093-1.051,3.093-3.405,0-2.053-.785-3.123-3.31-4.343-2.737-1.311-4-2.547-4-5.144a4.092,4.092,0,0,1,4.324-4.321c3.283,0,4.2,2.412,4.257,4.449h-1.51c-.084-.818-.35-3.117-2.822-3.117a2.572,2.572,0,0,0-2.707,2.853c0,1.889.844,2.783,3.165,3.9,3.133,1.512,4.18,3.038,4.18,5.609,0,2.864-1.559,4.856-4.709,4.856-3.429,0-4.594-2.266-4.745-4.867Z" transform="translate(-162.487 -26.666)" fill="#fff"/>
          <path id="Path_13" data-name="Path 13" d="M330.241,50.4h4.38c2.782,0,4.645,1.782,4.645,4.912,0,3.113-1.672,5.19-4.952,5.19h-2.55v7.989h-1.524Zm1.524,8.76h2.4c2.305,0,3.537-1.249,3.537-3.857,0-2.068-1.083-3.558-3.288-3.558h-2.646Z" transform="translate(-176.413 -26.924)" fill="#fff"/>
          <rect id="Rectangle_6" data-name="Rectangle 6" width="1.524" height="18.091" transform="translate(165.398 23.478)" fill="#fff"/>
          <path id="Path_14" data-name="Path 14" d="M367.96,59.939v8.554h-1.519V50.4h4.42c2.945,0,4.435,1.724,4.435,4.571,0,2.737-1.3,3.9-2.448,4.27,1.777.576,2.245,2.162,2.245,4.647v.718a19.281,19.281,0,0,0,.261,3.884h-1.546a18.166,18.166,0,0,1-.252-3.933v-.6c0-2.635-.514-4.023-3.1-4.023Zm0-1.346h2.6c2.29,0,3.147-1.392,3.147-3.594,0-1.914-.874-3.252-3-3.252H367.96Z" transform="translate(-195.75 -26.924)" fill="#fff"/>
          <rect id="Rectangle_7" data-name="Rectangle 7" width="1.524" height="18.091" transform="translate(182.605 23.478)" fill="#fff"/>
          <path id="Path_15" data-name="Path 15" d="M403.4,51.786H399.31V50.4h9.711v1.384h-4.094V68.493H403.4Z" transform="translate(-213.309 -26.924)" fill="#fff"/>
          <path id="Path_16" data-name="Path 16" d="M423.051,63.6c.137,1.99,1.138,3.535,3.243,3.535,2.007,0,3.093-1.051,3.093-3.405,0-2.053-.785-3.123-3.31-4.343-2.737-1.311-4-2.547-4-5.144a4.092,4.092,0,0,1,4.324-4.321c3.283,0,4.2,2.412,4.257,4.449h-1.511c-.084-.818-.35-3.117-2.822-3.117A2.572,2.572,0,0,0,423.62,54.1c0,1.889.844,2.783,3.165,3.9,3.133,1.512,4.18,3.038,4.18,5.609,0,2.864-1.559,4.856-4.709,4.856-3.429,0-4.594-2.266-4.745-4.867Z" transform="translate(-225.168 -26.666)" fill="#fff"/>
          <path id="Path_17" data-name="Path 17" d="M466.93,63.3c-.08,1.1-.578,5.165-4.728,5.165-4.7,0-4.977-5.3-4.977-9.465,0-5.043,1.269-9.126,5.207-9.126,4.2,0,4.4,4.073,4.43,5.053H465.3c-.031-.612-.169-3.642-2.9-3.642-3.153,0-3.569,4.41-3.569,7.705,0,3.968.453,8.071,3.422,8.071,2.59,0,3.031-2.766,3.112-3.762Z" transform="translate(-244.247 -26.64)" fill="#fff"/>
          <path id="Path_18" data-name="Path 18" d="M492.992,59c0,6.006-1.348,9.464-5.171,9.464-3.664,0-5.075-3.32-5.075-9.406,0-6.033,1.663-9.185,5.144-9.185,3.673,0,5.1,3.051,5.1,9.127m-8.665.01c0,5.476,1.184,8.092,3.551,8.092,2.429,0,3.533-2.582,3.533-8.047,0-5.656-1.2-7.815-3.555-7.815-2.309,0-3.529,2.515-3.529,7.77" transform="translate(-257.88 -26.64)" fill="#fff"/>
          <path id="Path_19" data-name="Path 19" d="M511.241,68.493V50.4h1.994c5.464,13.448,6.159,15.078,6.394,15.826h.026c-.115-2.526-.159-5.271-.159-8.2V50.4h1.481V68.493h-1.9c-5.681-14.069-6.306-15.635-6.5-16.308h-.027c.133,2.275.156,5.346.156,8.609v7.7Z" transform="translate(-273.102 -26.924)" fill="#fff"/>
          <path id="Path_20" data-name="Path 20" d="M539.187,63.6c.137,1.99,1.138,3.535,3.243,3.535,2.007,0,3.093-1.051,3.093-3.405,0-2.053-.785-3.123-3.309-4.343-2.737-1.311-4-2.547-4-5.144a4.092,4.092,0,0,1,4.324-4.321c3.283,0,4.2,2.412,4.257,4.449h-1.511c-.084-.818-.35-3.117-2.822-3.117a2.572,2.572,0,0,0-2.707,2.853c0,1.889.844,2.783,3.165,3.9,3.133,1.512,4.18,3.038,4.18,5.609,0,2.864-1.559,4.856-4.709,4.856-3.429,0-4.594-2.266-4.745-4.867Z" transform="translate(-287.207 -26.666)" fill="#fff"/>
          <path id="Path_21" data-name="Path 21" d="M565.033,50.4V63.185c0,2.183.654,4.22,3.19,4.22,2.568,0,3.208-1.7,3.208-4.238V50.4h1.524V63.2c0,3.307-1.165,5.569-4.785,5.569-3.454,0-4.682-2.125-4.682-5.417V50.4Z" transform="translate(-301.011 -26.924)" fill="#fff"/>
          <path id="Path_22" data-name="Path 22" d="M602.213,60.422c0-3.474.053-6.811.107-8.662h-.035c-.679,3.016-2.557,11.061-4.1,16.733h-1.531c-1.159-4.795-3.131-13.476-3.824-16.764h-.062c.106,2.1.186,6.16.186,9.249v7.515h-1.472V50.4h2.269c1.651,5.931,3.28,13.5,3.738,15.764h.027c.328-1.771,2.317-10.046,3.945-15.764h2.271V68.493h-1.52Z" transform="translate(-315.967 -26.924)" fill="#fff"/>
          <path id="Path_23" data-name="Path 23" d="M633.416,59.575H627.3v7.543h6.771l-.224,1.376H625.78V50.4h7.946v1.383H627.3V58.2h6.121Z" transform="translate(-334.288 -26.925)" fill="#fff"/>
          <path id="Path_24" data-name="Path 24" d="M649.968,59.939v8.554h-1.52V50.4h4.42c2.945,0,4.435,1.724,4.435,4.571,0,2.737-1.3,3.9-2.448,4.27,1.777.576,2.245,2.162,2.245,4.647v.718a19.283,19.283,0,0,0,.261,3.884h-1.547a18.167,18.167,0,0,1-.252-3.933v-.6c0-2.635-.514-4.023-3.1-4.023Zm0-1.346h2.6c2.29,0,3.147-1.392,3.147-3.594,0-1.914-.874-3.252-3-3.252h-2.747Z" transform="translate(-346.397 -26.924)" fill="#fff"/>
          <path id="Path_25" data-name="Path 25" d="M307.646,114.375l-.612,3.844h-4.127l3.543-17.961h5.8l3.589,17.961h-4.287l-.63-3.844Zm2.73-3.471c-.408-2.621-.8-5.544-1.028-7.195h-.136c-.175,1.722-.613,4.573-1.039,7.195Z" transform="translate(-161.811 -53.557)" fill="#fff"/>
          <path id="Path_26" data-name="Path 26" d="M332.771,118.219,329.8,100.258h4.348c.382,3.339.966,9.13,1.166,12.339h.1c.5-3.51,1.309-8.555,1.879-12.339h3.487c.508,3.283,1.323,8.622,1.772,12.208h.128c.287-3.527.974-9.46,1.262-12.208h4.017l-3.206,17.961H340.6c-.525-3.156-1.282-7.136-1.722-10.734h-.109c-.448,3.54-1.285,7.652-1.81,10.734Z" transform="translate(-176.175 -53.557)" fill="#fff"/>
          <path id="Path_27" data-name="Path 27" d="M372.395,114.375l-.612,3.844h-4.127l3.543-17.961H377l3.589,17.961H376.3l-.63-3.844Zm2.73-3.471c-.408-2.621-.8-5.544-1.028-7.195h-.136c-.175,1.722-.613,4.573-1.039,7.195Z" transform="translate(-196.4 -53.557)" fill="#fff"/>
          <path id="Path_28" data-name="Path 28" d="M402.409,110.871v7.349h-4.073V100.259H404.4c3.464,0,5.23,1.721,5.23,4.973,0,2.486-1.223,3.65-2.3,4.079,1.4.628,2.068,1.782,2.068,4.366v.625a27.993,27.993,0,0,0,.193,3.918h-4a18.694,18.694,0,0,1-.282-4.047v-.618c0-2.125-.428-2.684-2-2.684Zm.009-3.091h.957c1.542,0,2.138-.558,2.138-2.313,0-1.48-.523-2.127-1.877-2.127h-1.218Z" transform="translate(-212.789 -53.558)" fill="#fff"/>
          <path id="Path_29" data-name="Path 29" d="M427.172,100.259h5.13c4.688,0,6.6,2.662,6.6,8.635,0,6.363-1.888,9.326-6.746,9.326h-4.984Zm4.144,14.825h.767c1.92,0,2.483-1.355,2.483-6.256,0-4.1-.506-5.4-2.457-5.4h-.793Z" transform="translate(-228.193 -53.558)" fill="#fff"/>
          <path id="Path_30" data-name="Path 30" d="M459.371,112.641c.1,1.475.523,2.49,1.757,2.49,1.2,0,1.582-.807,1.582-1.828,0-1.243-.625-1.974-2.737-3.057-3.12-1.611-4.3-2.97-4.3-5.61,0-3.072,1.878-5.087,5.436-5.087,4.185,0,5.383,2.616,5.417,5.374h-3.972c-.069-1.251-.3-2.326-1.47-2.326-.918,0-1.328.6-1.328,1.6,0,1.029.4,1.56,2.354,2.536,3.329,1.676,4.742,3.093,4.742,6.114,0,2.969-1.736,5.334-5.767,5.334-4.367,0-5.7-2.489-5.788-5.538Z" transform="translate(-243.217 -53.179)" fill="#fff"/>
          <path id="Path_31" data-name="Path 31" d="M174.878,55.1C156,59.255,139.13,50.6,135.224,33.119c-3.367-15.077,4.455-26.213,11.441-32.1A32.3,32.3,0,0,0,119.86,36.847a17.551,17.551,0,0,0-1.52-1.658c-.509-.48-28.15-23.609-28.287-23.735A6.126,6.126,0,0,1,94.2.808a17.4,17.4,0,0,0-11.942,30.05c.509.481,28.149,23.609,28.287,23.735A6.127,6.127,0,0,1,106.4,65.238a17.362,17.362,0,0,0,17.351-16.513,32.3,32.3,0,0,0,51.74,6.27c-.2.034-.408.06-.611.1" transform="translate(-41.024 -0.432)" fill="#fff"/>
          <path id="Path_32" data-name="Path 32" d="M147.8.575H128.179L147.8,16.941Z" transform="translate(-68.472 -0.307)" fill="#fff"/>
          <path id="Path_33" data-name="Path 33" d="M264.252.575H244.631l19.621,16.365Z" transform="translate(-130.68 -0.307)" fill="#fff"/>
          <path id="Path_34" data-name="Path 34" d="M35.772,63.561l-8.221-3.1V32.581l.08-28.2L39.241,0H0L11.77,4.436l-.015,5.355c-.042.709-.065,1.469-.065,2.287V32.563l-.079,27.929L0,64.869H11.69v0H27.551v0h8.221v0H55.393L35.772,48.507Z" transform="translate(0 0.001)" fill="#fff"/>
        </g>
      </g>
    </g>
  </g>
</svg>
