<svg xmlns="http://www.w3.org/2000/svg" xmlns:xlink="http://www.w3.org/1999/xlink" width="239.203" height="50" viewBox="0 0 239.203 50">
  <defs>
    <clipPath id="clip-path">
      <rect id="Rectangle_8" data-name="Rectangle 8" width="239.203" height="50" fill="none"/>
    </clipPath>
  </defs>
  <g id="Group_4" data-name="Group 4" transform="translate(-627 -471)">
    <g id="Group_3" data-name="Group 3" transform="translate(627 471)">
      <rect id="Rectangle_4" data-name="Rectangle 4" width="1.172" height="13.916" transform="translate(109.88 0.295)" fill="#fff"/>
      <g id="Group_2" data-name="Group 2">
        <g id="Group_1" data-name="Group 1" clip-path="url(#clip-path)">
          <path id="Path_1" data-name="Path 1" d="M318.022,14.74V.824h1.534c4.2,10.345,4.738,11.6,4.919,12.174h.02c-.089-1.943-.122-4.054-.122-6.308V.824h1.139V14.74h-1.462c-4.37-10.822-4.85-12.027-5-12.545h-.02c.1,1.75.12,4.112.12,6.622V14.74Z" transform="translate(-204.071 -0.529)" fill="#fff"/>
          <path id="Path_2" data-name="Path 2" d="M346.046,1.889H342.9V.824h7.47V1.889h-3.149V14.74h-1.172Z" transform="translate(-220.033 -0.529)" fill="#fff"/>
          <path id="Path_3" data-name="Path 3" d="M373.913,7.88h-4.708v5.8h5.209l-.172,1.058h-6.2V.825h6.112V1.889h-4.947V6.82h4.708Z" transform="translate(-236.167 -0.529)" fill="#fff"/>
          <path id="Path_4" data-name="Path 4" d="M391.877,8.16v6.58h-1.169V.824h3.4c2.265,0,3.412,1.326,3.412,3.516,0,2.105-1,3-1.883,3.285,1.367.443,1.727,1.663,1.727,3.575v.552a14.834,14.834,0,0,0,.2,2.988h-1.19a13.977,13.977,0,0,1-.194-3.025v-.46c0-2.027-.4-3.094-2.387-3.094Zm0-1.035h2c1.762,0,2.421-1.071,2.421-2.765,0-1.472-.673-2.5-2.309-2.5h-2.113Z" transform="translate(-250.712 -0.529)" fill="#fff"/>
          <path id="Path_5" data-name="Path 5" d="M416.288,14.74V.824h1.534c4.2,10.345,4.738,11.6,4.919,12.174h.02c-.089-1.943-.123-4.054-.123-6.308V.824h1.139V14.74h-1.462c-4.37-10.822-4.85-12.027-5-12.545h-.02c.1,1.75.12,4.112.12,6.622V14.74Z" transform="translate(-267.127 -0.529)" fill="#fff"/>
          <path id="Path_6" data-name="Path 6" d="M444.176,9.989l-1.129,4.751h-1.172L445.287.824h1.523l3.535,13.916h-1.26l-1.147-4.751Zm3.5-1.061c-.914-3.7-1.474-5.955-1.648-6.982h-.044c-.2,1.186-.813,3.84-1.559,6.982Z" transform="translate(-283.546 -0.529)" fill="#fff"/>
          <path id="Path_7" data-name="Path 7" d="M466.181,1.889h-3.149V.824h7.47V1.889h-3.149V14.74h-1.172Z" transform="translate(-297.122 -0.529)" fill="#fff"/>
          <rect id="Rectangle_5" data-name="Rectangle 5" width="1.172" height="13.916" transform="translate(174.919 0.295)" fill="#fff"/>
          <path id="Path_8" data-name="Path 8" d="M505.874,7.312c0,4.62-1.037,7.28-3.978,7.28-2.819,0-3.9-2.554-3.9-7.235,0-4.641,1.279-7.065,3.957-7.065,2.825,0,3.924,2.347,3.924,7.02m-6.665.008c0,4.212.911,6.225,2.732,6.225,1.868,0,2.718-1.986,2.718-6.19,0-4.351-.921-6.011-2.735-6.011-1.776,0-2.714,1.935-2.714,5.977" transform="translate(-319.556 -0.187)" fill="#fff"/>
          <path id="Path_9" data-name="Path 9" d="M526.488,14.74V.824h1.534c4.2,10.345,4.738,11.6,4.919,12.174h.02c-.089-1.943-.123-4.054-.123-6.308V.824h1.139V14.74h-1.462c-4.37-10.822-4.85-12.027-5-12.545h-.02c.1,1.75.12,4.112.12,6.622V14.74Z" transform="translate(-337.841 -0.529)" fill="#fff"/>
          <path id="Path_10" data-name="Path 10" d="M554.375,9.989l-1.129,4.751h-1.172L555.486.824h1.523l3.535,13.916h-1.26l-1.146-4.751Zm3.5-1.061c-.914-3.7-1.474-5.955-1.648-6.982h-.044c-.2,1.186-.813,3.84-1.559,6.982Z" transform="translate(-354.259 -0.529)" fill="#fff"/>
          <path id="Path_11" data-name="Path 11" d="M580.331.824H581.5V13.686h5.046l-.211,1.055h-6.007Z" transform="translate(-372.391 -0.529)" fill="#fff"/>
          <path id="Path_12" data-name="Path 12" d="M305.359,60.44c.106,1.531.875,2.719,2.495,2.719,1.544,0,2.38-.809,2.38-2.619,0-1.579-.6-2.4-2.546-3.341-2.105-1.008-3.078-1.96-3.078-3.957a3.147,3.147,0,0,1,3.326-3.324c2.525,0,3.234,1.856,3.275,3.423h-1.162c-.065-.63-.269-2.4-2.171-2.4a1.978,1.978,0,0,0-2.082,2.195c0,1.453.649,2.141,2.434,3,2.41,1.163,3.216,2.337,3.216,4.314,0,2.2-1.2,3.735-3.623,3.735-2.638,0-3.534-1.743-3.65-3.744Z" transform="translate(-195.184 -32.032)" fill="#fff"/>
          <path id="Path_13" data-name="Path 13" d="M330.241,50.4h3.369c2.14,0,3.573,1.371,3.573,3.778s-1.286,3.992-3.809,3.992h-1.961v6.145h-1.172Zm1.172,6.739h1.844c1.773,0,2.721-.961,2.721-2.967a2.427,2.427,0,0,0-2.529-2.737h-2.035Z" transform="translate(-211.912 -32.342)" fill="#fff"/>
          <rect id="Rectangle_6" data-name="Rectangle 6" width="1.172" height="13.916" transform="translate(127.229 18.06)" fill="#fff"/>
          <path id="Path_14" data-name="Path 14" d="M367.61,57.738v6.58h-1.169V50.4h3.4c2.265,0,3.412,1.326,3.412,3.516,0,2.105-1,3-1.883,3.285,1.367.443,1.727,1.663,1.727,3.575v.552a14.831,14.831,0,0,0,.2,2.988h-1.19a13.975,13.975,0,0,1-.194-3.025v-.46c0-2.027-.4-3.094-2.387-3.094Zm0-1.035h2c1.762,0,2.421-1.071,2.421-2.765,0-1.472-.673-2.5-2.309-2.5H367.61Z" transform="translate(-235.141 -32.342)" fill="#fff"/>
          <rect id="Rectangle_7" data-name="Rectangle 7" width="1.172" height="13.916" transform="translate(140.466 18.06)" fill="#fff"/>
          <path id="Path_15" data-name="Path 15" d="M402.459,51.467H399.31V50.4h7.47v1.065h-3.149V64.318h-1.172Z" transform="translate(-256.232 -32.342)" fill="#fff"/>
          <path id="Path_16" data-name="Path 16" d="M422.7,60.44c.106,1.531.875,2.719,2.495,2.719,1.544,0,2.38-.809,2.38-2.619,0-1.579-.6-2.4-2.546-3.341-2.105-1.008-3.078-1.96-3.078-3.957a3.147,3.147,0,0,1,3.326-3.324c2.525,0,3.234,1.856,3.275,3.423h-1.162c-.065-.63-.269-2.4-2.171-2.4a1.978,1.978,0,0,0-2.082,2.195c0,1.453.649,2.141,2.434,3,2.41,1.163,3.216,2.337,3.216,4.314,0,2.2-1.2,3.735-3.623,3.735-2.638,0-3.534-1.743-3.65-3.744Z" transform="translate(-270.478 -32.032)" fill="#fff"/>
          <path id="Path_17" data-name="Path 17" d="M464.69,60.2c-.061.847-.444,3.973-3.637,3.973-3.612,0-3.828-4.077-3.828-7.281,0-3.879.976-7.02,4.006-7.02,3.228,0,3.381,3.133,3.408,3.887h-1.2c-.024-.47-.13-2.8-2.233-2.8-2.425,0-2.745,3.392-2.745,5.927,0,3.052.349,6.209,2.633,6.209,1.992,0,2.332-2.128,2.393-2.894Z" transform="translate(-293.396 -32.001)" fill="#fff"/>
          <path id="Path_18" data-name="Path 18" d="M490.628,56.89c0,4.62-1.037,7.28-3.978,7.28-2.819,0-3.9-2.554-3.9-7.235,0-4.641,1.279-7.065,3.957-7.065,2.825,0,3.924,2.347,3.924,7.02m-6.665.008c0,4.212.911,6.225,2.732,6.225,1.868,0,2.718-1.986,2.718-6.19,0-4.351-.921-6.011-2.735-6.011-1.776,0-2.714,1.935-2.714,5.977" transform="translate(-309.773 -32.001)" fill="#fff"/>
          <path id="Path_19" data-name="Path 19" d="M511.241,64.318V50.4h1.534c4.2,10.345,4.738,11.6,4.919,12.174h.02c-.089-1.943-.122-4.054-.122-6.308V50.4h1.139V64.318h-1.462c-4.37-10.822-4.85-12.027-5-12.545h-.02c.1,1.75.12,4.112.12,6.622v5.922Z" transform="translate(-328.057 -32.342)" fill="#fff"/>
          <path id="Path_20" data-name="Path 20" d="M538.832,60.44c.106,1.531.875,2.719,2.495,2.719,1.544,0,2.38-.809,2.38-2.619,0-1.579-.6-2.4-2.546-3.341-2.105-1.008-3.078-1.96-3.078-3.957a3.147,3.147,0,0,1,3.326-3.324c2.525,0,3.234,1.856,3.275,3.423h-1.162c-.065-.63-.269-2.4-2.171-2.4a1.978,1.978,0,0,0-2.082,2.195c0,1.453.649,2.141,2.434,3,2.41,1.163,3.216,2.337,3.216,4.314,0,2.2-1.2,3.735-3.622,3.735-2.638,0-3.534-1.743-3.65-3.744Z" transform="translate(-345.001 -32.032)" fill="#fff"/>
          <path id="Path_21" data-name="Path 21" d="M564.676,50.4v9.833c0,1.679.5,3.246,2.454,3.246,1.975,0,2.468-1.311,2.468-3.26V50.4h1.172v9.843c0,2.544-.9,4.284-3.681,4.284-2.657,0-3.6-1.634-3.6-4.167V50.4Z" transform="translate(-361.583 -32.342)" fill="#fff"/>
          <path id="Path_22" data-name="Path 22" d="M599.737,58.11c0-2.673.041-5.239.082-6.663h-.027c-.522,2.32-1.967,8.508-3.153,12.872h-1.177c-.892-3.688-2.409-10.366-2.941-12.9h-.047c.082,1.616.143,4.739.143,7.115v5.781h-1.132V50.4h1.746c1.27,4.562,2.523,10.386,2.875,12.126h.021c.252-1.363,1.782-7.728,3.035-12.126h1.747V64.318h-1.17Z" transform="translate(-379.548 -32.342)" fill="#fff"/>
          <path id="Path_23" data-name="Path 23" d="M631.654,57.459h-4.708v5.8h5.209l-.172,1.058h-6.2V50.4h6.113v1.064h-4.947V56.4h4.708Z" transform="translate(-401.555 -32.343)" fill="#fff"/>
          <path id="Path_24" data-name="Path 24" d="M649.617,57.738v6.58h-1.169V50.4h3.4c2.265,0,3.412,1.326,3.412,3.516,0,2.105-1,3-1.883,3.285,1.367.443,1.727,1.663,1.727,3.575v.552a14.832,14.832,0,0,0,.2,2.988h-1.19a13.977,13.977,0,0,1-.194-3.025v-.46c0-2.027-.4-3.094-2.387-3.094Zm0-1.035h2c1.762,0,2.421-1.071,2.421-2.765,0-1.472-.672-2.5-2.309-2.5h-2.113Z" transform="translate(-416.101 -32.342)" fill="#fff"/>
          <path id="Path_25" data-name="Path 25" d="M306.552,111.117l-.47,2.957h-3.175l2.726-13.816h4.461l2.761,13.816h-3.3l-.484-2.957Zm2.1-2.67c-.313-2.016-.616-4.264-.791-5.534h-.1c-.135,1.325-.472,3.518-.8,5.534Z" transform="translate(-194.372 -64.334)" fill="#fff"/>
          <path id="Path_26" data-name="Path 26" d="M332.085,114.074,329.8,100.258h3.345c.294,2.569.743,7.023.9,9.491h.078c.385-2.7,1.007-6.581,1.445-9.491h2.682c.391,2.525,1.018,6.632,1.363,9.391h.1c.221-2.713.75-7.277.971-9.391h3.09L341.3,114.074h-3.193c-.4-2.428-.986-5.489-1.325-8.257H336.7c-.345,2.723-.989,5.886-1.392,8.257Z" transform="translate(-211.626 -64.334)" fill="#fff"/>
          <path id="Path_27" data-name="Path 27" d="M371.3,111.117l-.47,2.957h-3.175l2.726-13.816h4.461l2.761,13.816h-3.3l-.484-2.957Zm2.1-2.67c-.314-2.016-.616-4.264-.791-5.534h-.1c-.135,1.325-.472,3.518-.8,5.534Z" transform="translate(-235.92 -64.334)" fill="#fff"/>
          <path id="Path_28" data-name="Path 28" d="M401.469,108.422v5.653h-3.133V100.259H403c2.665,0,4.023,1.324,4.023,3.826a3.066,3.066,0,0,1-1.773,3.137c1.081.483,1.591,1.371,1.591,3.358v.48a21.538,21.538,0,0,0,.148,3.014h-3.08a14.377,14.377,0,0,1-.217-3.113v-.475c0-1.634-.329-2.064-1.542-2.064Zm.007-2.377h.736c1.186,0,1.645-.429,1.645-1.779,0-1.139-.4-1.636-1.444-1.636h-.937Z" transform="translate(-255.607 -64.335)" fill="#fff"/>
          <path id="Path_29" data-name="Path 29" d="M427.172,100.259h3.946c3.606,0,5.077,2.047,5.077,6.642,0,4.895-1.452,7.174-5.189,7.174h-3.834Zm3.188,11.4h.59c1.477,0,1.91-1.042,1.91-4.812,0-3.155-.389-4.153-1.89-4.153h-.61Z" transform="translate(-274.111 -64.335)" fill="#fff"/>
          <path id="Path_30" data-name="Path 30" d="M458.431,109.62c.08,1.134.4,1.916,1.351,1.916.922,0,1.217-.621,1.217-1.406,0-.956-.48-1.518-2.106-2.351-2.4-1.239-3.306-2.285-3.306-4.315,0-2.363,1.445-3.913,4.182-3.913,3.219,0,4.141,2.012,4.167,4.134H460.88c-.053-.962-.229-1.789-1.13-1.789-.706,0-1.022.458-1.022,1.229,0,.792.309,1.2,1.811,1.951,2.56,1.289,3.648,2.38,3.648,4.7,0,2.284-1.335,4.1-4.436,4.1-3.36,0-4.385-1.914-4.452-4.26Z" transform="translate(-292.159 -63.88)" fill="#fff"/>
          <path id="Path_31" data-name="Path 31" d="M152.244,42.571c-14.525,3.2-27.5-3.463-30.5-16.908-2.59-11.6,3.427-20.164,8.8-24.69A24.849,24.849,0,0,0,109.922,28.53a13.5,13.5,0,0,0-1.169-1.276C108.361,26.885,87.1,9.094,86.994,9A4.712,4.712,0,0,1,90.181.808,13.381,13.381,0,0,0,81,23.923c.391.37,21.653,18.161,21.759,18.258a4.713,4.713,0,0,1-3.187,8.189,13.355,13.355,0,0,0,13.347-12.7,24.848,24.848,0,0,0,39.8,4.823c-.157.026-.314.046-.47.081" transform="translate(-49.279 -0.518)" fill="#fff"/>
          <path id="Path_32" data-name="Path 32" d="M143.272.575H128.179l15.093,12.589Z" transform="translate(-82.251 -0.369)" fill="#fff"/>
          <path id="Path_33" data-name="Path 33" d="M259.724.575H244.631l15.093,12.589Z" transform="translate(-156.977 -0.369)" fill="#fff"/>
          <path id="Path_34" data-name="Path 34" d="M27.517,48.893l-6.324-2.384V25.062l.062-21.7L30.186,0H0L9.054,3.412,9.042,7.531c-.033.545-.05,1.13-.05,1.759V25.048L8.932,46.532,0,49.9H8.993v0h12.2v0h6.324v0H42.61L27.517,37.313Z" transform="translate(0 0.001)" fill="#fff"/>
        </g>
      </g>
    </g>
  </g>
</svg>
