<svg width="159" height="153" viewBox="0 0 159 153" fill="none" xmlns="http://www.w3.org/2000/svg">
<g clip-path="url(#clip0_302_117)">
<path d="M38.1 98.409C37.8297 98.0837 37.4914 97.8217 37.1089 97.6413C36.7263 97.4609 36.3089 97.3666 35.886 97.365H31.792L32.368 93.706C32.3823 93.6188 32.3767 93.5294 32.3518 93.4446C32.3269 93.3598 32.2832 93.2817 32.224 93.216C32.1698 93.1478 32.1007 93.0929 32.022 93.0555C31.9433 93.018 31.8571 92.9991 31.77 93H7.04901C6.96187 92.999 6.87565 93.0179 6.79696 93.0554C6.71827 93.0928 6.64919 93.1477 6.59501 93.216C6.53571 93.2816 6.49197 93.3597 6.46704 93.4446C6.4421 93.5294 6.43663 93.6188 6.45101 93.706L7.02601 97.365H3.62601C3.11995 97.3638 2.61989 97.4746 2.16172 97.6895C1.70355 97.9045 1.29863 98.2181 0.976012 98.608C0.60145 99.0506 0.324407 99.5672 0.162955 100.124C0.00150353 100.681 -0.0407291 101.266 0.0390123 101.84L0.729012 106.87C0.983742 109.255 2.0329 111.485 3.70785 113.201C5.3828 114.918 7.58625 116.021 9.96401 116.334V116.334C10.3863 117.437 11.0941 118.407 12.015 119.146C12.9295 119.88 14.0249 120.354 15.186 120.518C15.186 124.725 12.938 126.312 12.414 126.604H9.67101C9.50765 126.608 9.35227 126.675 9.23756 126.792C9.12286 126.908 9.05777 127.065 9.05601 127.228V133.168C9.05358 133.252 9.06771 133.335 9.09757 133.413C9.12743 133.491 9.17244 133.562 9.23001 133.623C9.28692 133.683 9.35539 133.731 9.43134 133.765C9.50729 133.798 9.58914 133.815 9.67201 133.816H29.148C29.3038 133.803 29.4493 133.733 29.5557 133.618C29.6621 133.504 29.7218 133.353 29.723 133.197V127.228C29.7217 127.071 29.6621 126.92 29.5558 126.805C29.4495 126.69 29.3042 126.618 29.148 126.604H26.376C25.87 126.312 23.604 124.704 23.622 120.518C24.7786 120.354 25.8698 119.882 26.781 119.151C27.6983 118.415 28.404 117.449 28.826 116.351C31.2081 116.037 33.4154 114.931 35.0934 113.211C36.7715 111.492 37.823 109.258 38.079 106.869L38.855 101.092C38.9255 100.617 38.8946 100.132 38.7645 99.6697C38.6344 99.2073 38.4079 98.7777 38.1 98.409V98.409ZM1.93701 106.683L1.24701 101.677C1.19262 101.278 1.22263 100.871 1.33511 100.484C1.44759 100.097 1.64004 99.738 1.90001 99.43C2.10899 99.174 2.37204 98.9675 2.67028 98.8252C2.96853 98.6829 3.29457 98.6084 3.62501 98.607H7.16901L9.58401 114.857C9.5869 114.925 9.59867 114.992 9.61901 115.057C7.60901 114.671 5.77654 113.649 4.39282 112.141C3.0091 110.633 2.14766 108.72 1.93601 106.684L1.93701 106.683ZM28.537 132.543H10.245V127.876H28.538L28.537 132.543ZM24.484 126.6H14.306C15.7634 124.948 16.5149 122.79 16.399 120.59H22.399C22.3032 122.786 23.0497 124.936 24.486 126.6H24.484ZM22.646 119.365H16.146C14.847 119.363 13.5935 118.886 12.621 118.025C11.6407 117.157 11.0039 115.966 10.826 114.668L7.80001 94.249H31.039L28.014 114.671C27.8302 115.975 27.1844 117.171 26.194 118.039C25.2117 118.9 23.9484 119.373 22.642 119.367L22.646 119.365ZM37.646 100.927L36.875 106.681C36.661 108.718 35.7974 110.631 34.4118 112.139C33.0263 113.647 31.1923 114.669 29.181 115.054V115.054C29.1847 114.986 29.1981 114.918 29.221 114.854L31.613 98.604H35.886C36.134 98.6082 36.3781 98.6662 36.6015 98.7739C36.825 98.8816 37.0223 99.0366 37.18 99.228C37.375 99.4614 37.5176 99.734 37.598 100.027C37.6784 100.321 37.6948 100.628 37.646 100.928V100.927Z" fill="#C3A25D"/>
</g>
<path d="M79 153C95.5685 153 109 139.569 109 123C109 106.431 95.5685 93 79 93C62.4315 93 49 106.431 49 123C49 139.569 62.4315 153 79 153Z" fill="#CCEFAA"/>
<path d="M97.892 129.296C92.555 130.47 87.792 128.023 86.684 123.083C86.3212 121.42 86.432 119.688 87.0036 118.084C87.5752 116.481 88.5849 115.07 89.918 114.011C87.5922 114.394 85.5048 115.662 84.0926 117.55C82.6804 119.437 82.0527 121.797 82.341 124.137C82.2078 123.972 82.0642 123.815 81.911 123.668C81.767 123.532 73.954 116.995 73.911 116.959C73.6536 116.723 73.4735 116.415 73.3943 116.075C73.315 115.735 73.3404 115.379 73.467 115.054C73.5936 114.728 73.8155 114.449 74.1037 114.252C74.3919 114.055 74.7329 113.95 75.082 113.95C74.0971 113.95 73.1349 114.245 72.32 114.798C71.505 115.351 70.8749 116.136 70.5112 117.051C70.1475 117.967 70.0671 118.97 70.2803 119.931C70.4935 120.893 70.9905 121.768 71.707 122.444C71.851 122.58 79.664 129.117 79.707 129.153C79.9644 129.389 80.1445 129.697 80.2237 130.037C80.3029 130.377 80.2776 130.733 80.151 131.058C80.0244 131.383 79.8024 131.663 79.5142 131.86C79.2261 132.057 78.8851 132.162 78.536 132.162C79.7958 132.161 81.0071 131.676 81.9192 130.808C82.8313 129.939 83.3744 128.752 83.436 127.494C84.1386 128.745 85.1261 129.813 86.3186 130.611C87.511 131.409 88.8748 131.915 90.2992 132.088C91.7237 132.26 93.1688 132.095 94.5174 131.605C95.8659 131.114 97.0799 130.313 98.061 129.266C98.003 129.275 97.946 129.283 97.888 129.296" fill="#053527"/>
<path d="M82.479 113.92H76.933L82.479 118.546V113.92Z" fill="#053527"/>
<path d="M97.812 113.92H92.266L97.812 118.546V113.92Z" fill="#053527"/>
<path d="M70.168 131.81L67.844 130.934V123.053L67.867 115.081L71.149 113.844H60.057L63.384 115.098V116.612C63.372 116.812 63.366 117.027 63.366 117.258V123.048L63.344 130.942L60.062 132.179H75.717L70.171 127.553L70.168 131.81Z" fill="#053527"/>
<path d="M52.1374 118.821L52.099 119.073L55.0886 119.528L55.127 119.276L52.1374 118.821Z" fill="#053527"/>
<path d="M55.335 118.067L52.398 117.349L52.477 117.025C54.877 116.672 55.17 116.625 55.3 116.615C54.886 116.534 54.438 116.432 53.962 116.315L52.724 116.015L52.783 115.774L55.721 116.492L55.645 116.801C53.135 117.165 52.856 117.201 52.739 117.209C53.114 117.278 53.613 117.396 54.139 117.526L55.389 117.832L55.335 118.067Z" fill="#053527"/>
<path d="M53.579 114.039L53.349 114.684L53.131 114.606L53.676 113.077L53.894 113.155L53.664 113.8L56.294 114.738L56.208 114.978L53.579 114.039Z" fill="#053527"/>
<path d="M56.08 111.45L55.646 112.377L56.788 112.911L57.268 111.886L57.46 112.017L56.889 113.238L54.15 111.956L54.713 110.756L54.922 110.856L54.466 111.83L55.437 112.284L55.871 111.357L56.08 111.45Z" fill="#053527"/>
<path d="M56.84 110.178L58.066 110.913L57.935 111.131L55.341 109.576L55.721 108.942C55.7647 108.849 55.8288 108.768 55.9084 108.703C55.988 108.639 56.0811 108.593 56.1808 108.57C56.2805 108.547 56.3842 108.546 56.4842 108.568C56.5841 108.591 56.6777 108.635 56.758 108.699C57.15 108.934 57.205 109.22 57.158 109.417C57.393 109.212 57.658 109.281 58.017 109.495L58.117 109.557C58.2993 109.676 58.4933 109.777 58.696 109.857L58.563 110.079C58.3574 110 58.1609 109.9 57.977 109.779L57.891 109.728C57.513 109.501 57.27 109.456 57.048 109.828L56.84 110.178ZM56.647 110.062L56.871 109.689C57.071 109.361 56.942 109.118 56.626 108.929C56.5714 108.883 56.5072 108.85 56.4382 108.833C56.3691 108.816 56.2971 108.814 56.2274 108.829C56.1577 108.843 56.0922 108.874 56.0359 108.917C55.9795 108.961 55.9338 109.016 55.902 109.08L55.666 109.474L56.647 110.062Z" fill="#053527"/>
<path d="M59.311 108.955L56.911 107.119L57.111 106.854C59.452 107.493 59.739 107.566 59.863 107.611C59.516 107.37 59.147 107.097 58.757 106.8L57.745 106.024L57.895 105.824L60.295 107.66L60.102 107.912C57.656 107.239 57.385 107.163 57.276 107.121C57.591 107.334 58.002 107.643 58.435 107.974L59.458 108.755L59.311 108.955Z" fill="#053527"/>
<path d="M60.515 105.864L61.091 106.755L60.915 106.939L59.243 104.311L59.472 104.072L62.188 105.609L61.999 105.809L61.081 105.275L60.515 105.864ZM60.874 105.155C60.157 104.743 59.717 104.491 59.53 104.364L59.523 104.371C59.68 104.58 60.004 105.071 60.385 105.665L60.874 105.155Z" fill="#053527"/>
<path d="M61.16 102.777L60.645 103.228L60.493 103.054L61.715 101.985L61.867 102.159L61.352 102.61L63.191 104.71L62.999 104.878L61.16 102.777Z" fill="#053527"/>
<path d="M62.8463 101.115L62.642 101.268L64.4514 103.691L64.6557 103.538L62.8463 101.115Z" fill="#053527"/>
<path d="M66.201 100.673C66.73 101.526 66.844 102.136 66.301 102.473C65.78 102.796 65.287 102.449 64.751 101.584C64.215 100.719 64.177 100.133 64.672 99.8259C65.194 99.5019 65.666 99.8099 66.201 100.673ZM64.971 101.438C65.454 102.216 65.853 102.483 66.189 102.274C66.525 102.065 66.463 101.596 65.981 100.819C65.481 100.019 65.122 99.8189 64.787 100.019C64.452 100.219 64.507 100.687 64.971 101.434" fill="#053527"/>
<path d="M67.968 101.464L66.674 98.7299L66.974 98.5869C68.761 100.229 68.983 100.425 69.074 100.521C68.874 100.148 68.674 99.7359 68.463 99.2929L67.918 98.1409L68.142 98.0349L69.436 100.769L69.149 100.905C67.284 99.1849 67.078 98.9929 67.001 98.9049C67.184 99.2389 67.407 99.7049 67.64 100.195L68.19 101.358L67.968 101.464Z" fill="#053527"/>
<path d="M70.454 99.2639L70.554 100.32L70.313 100.403L70.028 97.3029L70.341 97.1949L72.054 99.8039L71.795 99.8929L71.223 98.9979L70.454 99.2639ZM71.098 98.7979C70.648 98.1029 70.373 97.6789 70.265 97.4799H70.256C70.299 97.7379 70.356 98.3269 70.43 99.0249L71.098 98.7979Z" fill="#053527"/>
<path d="M72.279 96.6139L72.527 96.5549L73.174 99.2749L74.241 99.0209L74.249 99.2549L72.979 99.5549L72.279 96.6139Z" fill="#053527"/>
<path d="M76.635 98.1209C76.683 98.4509 76.869 98.6959 77.22 98.6689C77.555 98.6439 77.72 98.4549 77.693 98.0629C77.667 97.7209 77.523 97.5519 77.087 97.3799C76.614 97.1959 76.387 97.0059 76.355 96.5729C76.3421 96.4772 76.3497 96.3798 76.3772 96.2872C76.4047 96.1946 76.4515 96.1089 76.5145 96.0356C76.5775 95.9624 76.6553 95.9034 76.7428 95.8624C76.8302 95.8214 76.9254 95.7995 77.022 95.7979C77.1189 95.7854 77.2175 95.7939 77.3108 95.8229C77.4042 95.852 77.4901 95.9008 77.5629 95.9661C77.6356 96.0315 77.6934 96.1117 77.7322 96.2014C77.7711 96.2911 77.7901 96.3882 77.788 96.4859L77.536 96.5049C77.512 96.3699 77.436 95.9899 77.026 96.0209C76.9634 96.022 76.9018 96.0368 76.8454 96.0641C76.7891 96.0915 76.7395 96.1309 76.7 96.1794C76.6604 96.228 76.632 96.2846 76.6166 96.3453C76.6013 96.4061 76.5993 96.4694 76.611 96.5309C76.635 96.8459 76.787 96.9839 77.188 97.1409C77.73 97.3539 77.923 97.5949 77.955 98.0229C77.9752 98.1292 77.9717 98.2386 77.9446 98.3433C77.9175 98.448 77.8676 98.5454 77.7983 98.6285C77.7291 98.7116 77.6423 98.7783 77.5442 98.8238C77.4461 98.8694 77.3391 98.8926 77.231 98.8919C77.1241 98.9069 77.0152 98.8986 76.9118 98.8676C76.8084 98.8365 76.7129 98.7834 76.6319 98.712C76.551 98.6405 76.4865 98.5524 76.4428 98.4537C76.3991 98.3549 76.3774 98.2479 76.379 98.1399L76.635 98.1209Z" fill="#053527"/>
<path d="M79.138 95.7529L79.87 95.7729C79.9776 95.77 80.0845 95.7905 80.1833 95.8332C80.2821 95.8758 80.3704 95.9394 80.4421 96.0197C80.5138 96.0999 80.5671 96.1949 80.5984 96.2978C80.6296 96.4008 80.638 96.5094 80.623 96.6159C80.6336 96.7301 80.6189 96.8452 80.5797 96.953C80.5405 97.0608 80.4779 97.1586 80.3965 97.2393C80.315 97.32 80.2166 97.3817 80.1085 97.4198C80.0003 97.458 79.8851 97.4717 79.771 97.4599L79.345 97.4479L79.308 98.7829L79.054 98.7759L79.138 95.7529ZM79.352 97.2239L79.752 97.2349C80.137 97.2459 80.352 97.0429 80.361 96.6069C80.3732 96.5306 80.3684 96.4525 80.3471 96.3782C80.3257 96.3039 80.2883 96.2352 80.2374 96.177C80.1866 96.1188 80.1235 96.0725 80.0528 96.0414C79.982 96.0103 79.9053 95.9951 79.828 95.9969L79.386 95.9839L79.352 97.2239Z" fill="#053527"/>
<path d="M81.9206 95.9135L81.586 98.9189L81.8394 98.9471L82.174 95.9417L81.9206 95.9135Z" fill="#053527"/>
<path d="M83.587 97.7589L83.31 99.1589L83.061 99.1099L83.647 96.1419L84.372 96.2849C84.4739 96.2948 84.5723 96.3275 84.6598 96.3807C84.7473 96.4339 84.8217 96.5062 84.8774 96.5921C84.933 96.6781 84.9686 96.7755 84.9813 96.8771C84.9941 96.9787 84.9837 97.0819 84.951 97.1789C84.862 97.6279 84.612 97.7789 84.411 97.7999C84.684 97.9519 84.711 98.2269 84.629 98.6349L84.606 98.7529C84.5566 98.9649 84.5288 99.1814 84.523 99.3989L84.269 99.3489C84.2739 99.1288 84.3027 98.9098 84.355 98.6959L84.374 98.5959C84.46 98.1639 84.42 97.9189 83.995 97.8359L83.587 97.7589ZM83.631 97.5379L84.058 97.6219C84.434 97.6959 84.619 97.4959 84.691 97.1339C84.7157 97.0671 84.7249 96.9955 84.7179 96.9246C84.7109 96.8537 84.688 96.7852 84.6507 96.7245C84.6134 96.6637 84.5629 96.6122 84.5028 96.5739C84.4428 96.5355 84.3748 96.5112 84.304 96.5029L83.853 96.4139L83.631 97.5379Z" fill="#053527"/>
<path d="M86.4352 96.7824L85.59 99.6869L85.8348 99.7582L86.68 96.8536L86.4352 96.7824Z" fill="#053527"/>
<path d="M88.329 97.6359L87.687 97.3989L87.767 97.1819L89.29 97.7439L89.21 97.9609L88.568 97.7239L87.6 100.344L87.361 100.256L88.329 97.6359Z" fill="#053527"/>
<path d="M89.457 100.269C89.4188 100.334 89.3944 100.406 89.3855 100.481C89.3765 100.556 89.3831 100.632 89.4049 100.704C89.4267 100.776 89.4632 100.843 89.5121 100.9C89.561 100.957 89.6212 101.004 89.689 101.037C89.989 101.183 90.231 101.103 90.402 100.749C90.551 100.44 90.511 100.222 90.219 99.8549C89.902 99.4549 89.802 99.1809 89.991 98.7899C90.0763 98.6198 90.2256 98.4905 90.4062 98.4305C90.5868 98.3705 90.7839 98.3846 90.954 98.4699C91.1241 98.5552 91.2534 98.7045 91.3134 98.8851C91.3735 99.0657 91.3593 99.2628 91.274 99.4329L91.047 99.3229C91.0794 99.2658 91.0999 99.2028 91.1074 99.1376C91.1148 99.0724 91.109 99.0063 91.0903 98.9434C91.0717 98.8805 91.0405 98.8219 90.9987 98.7714C90.9569 98.7208 90.9053 98.6791 90.847 98.6489C90.7923 98.6184 90.7316 98.6002 90.6691 98.5957C90.6066 98.5911 90.5439 98.6002 90.4853 98.6224C90.4267 98.6446 90.3737 98.6793 90.33 98.7242C90.2862 98.769 90.2528 98.8228 90.232 98.8819C90.095 99.1659 90.157 99.3619 90.425 99.6979C90.5837 99.8378 90.6916 100.026 90.7317 100.234C90.7719 100.442 90.7421 100.657 90.647 100.846C90.6113 100.948 90.5533 101.041 90.4774 101.118C90.4015 101.195 90.3095 101.254 90.2079 101.291C90.1064 101.329 89.9978 101.343 89.8901 101.333C89.7824 101.323 89.6782 101.29 89.585 101.235C89.4849 101.194 89.3947 101.133 89.3207 101.054C89.2467 100.975 89.1906 100.881 89.1563 100.779C89.122 100.677 89.1103 100.568 89.1219 100.461C89.1336 100.353 89.1685 100.25 89.224 100.157L89.457 100.269Z" fill="#053527"/>
<path d="M94.188 103.029C94.1296 103.121 94.0535 103.2 93.9643 103.262C93.8751 103.325 93.7744 103.369 93.668 103.392C93.5617 103.415 93.4518 103.417 93.3447 103.398C93.2376 103.378 93.1354 103.338 93.044 103.279C92.403 102.826 92.875 102.079 93.277 101.506C93.763 100.817 94.33 100.382 94.868 100.761C94.953 100.824 95.0241 100.904 95.0767 100.995C95.1292 101.087 95.1621 101.189 95.1732 101.294C95.1843 101.399 95.1733 101.505 95.1411 101.606C95.1089 101.707 95.0561 101.8 94.986 101.879L94.773 101.729C94.828 101.642 95.101 101.215 94.728 100.952C94.297 100.652 93.815 101.21 93.498 101.66C93.116 102.202 92.782 102.806 93.188 103.092C93.542 103.342 93.869 103.006 93.976 102.878L94.188 103.029Z" fill="#053527"/>
<path d="M96.763 104.27C96.098 105.022 95.546 105.306 95.063 104.883C94.604 104.477 94.795 103.905 95.469 103.143C96.143 102.381 96.694 102.177 97.131 102.562C97.591 102.969 97.431 103.509 96.759 104.27H96.763ZM95.673 103.312C95.067 103.998 94.925 104.457 95.221 104.719C95.517 104.981 95.95 104.787 96.555 104.103C97.181 103.395 97.27 102.992 96.975 102.731C96.68 102.47 96.255 102.655 95.675 103.313" fill="#053527"/>
<path d="M96.513 106.192L98.762 104.169L98.985 104.417C97.924 106.6 97.799 106.868 97.733 106.981C98.033 106.681 98.37 106.372 98.733 106.044L99.681 105.191L99.847 105.375L97.598 107.398L97.385 107.162C98.499 104.883 98.624 104.63 98.685 104.53C98.417 104.801 98.038 105.147 97.632 105.512L96.675 106.373L96.513 106.192Z" fill="#053527"/>
<path d="M99.015 107.947C98.9506 107.986 98.8949 108.038 98.8514 108.099C98.8079 108.16 98.7776 108.23 98.7623 108.304C98.747 108.378 98.7471 108.454 98.7625 108.527C98.7779 108.601 98.8084 108.671 98.852 108.732C98.8896 108.796 98.9418 108.851 99.0043 108.892C99.0668 108.933 99.138 108.958 99.2122 108.967C99.2864 108.975 99.3615 108.966 99.4316 108.941C99.5017 108.915 99.5648 108.873 99.616 108.819C99.895 108.619 99.963 108.407 99.882 107.946C99.792 107.446 99.837 107.155 100.189 106.901C100.266 106.847 100.353 106.809 100.445 106.789C100.537 106.768 100.632 106.766 100.725 106.783C100.818 106.799 100.906 106.834 100.986 106.885C101.065 106.935 101.134 107.001 101.188 107.078C101.241 107.156 101.28 107.243 101.3 107.335C101.32 107.427 101.322 107.522 101.306 107.614C101.289 107.707 101.254 107.796 101.204 107.875C101.153 107.954 101.087 108.023 101.01 108.077L100.863 107.877C100.919 107.842 100.967 107.797 101.005 107.743C101.042 107.689 101.069 107.629 101.082 107.565C101.096 107.501 101.097 107.434 101.084 107.37C101.072 107.306 101.047 107.244 101.01 107.19C100.976 107.137 100.932 107.092 100.879 107.058C100.826 107.024 100.767 107.002 100.705 106.994C100.643 106.985 100.579 106.99 100.519 107.009C100.46 107.027 100.404 107.059 100.358 107.101C100.102 107.285 100.063 107.487 100.139 107.911C100.239 108.484 100.139 108.775 99.786 109.026C99.7059 109.099 99.6106 109.153 99.5071 109.184C99.4037 109.215 99.2945 109.224 99.1875 109.208C99.0805 109.192 98.9783 109.153 98.8883 109.093C98.7983 109.033 98.7227 108.954 98.667 108.861C98.5986 108.777 98.549 108.68 98.5218 108.575C98.4946 108.471 98.4903 108.362 98.5093 108.255C98.5283 108.149 98.5702 108.048 98.6319 107.959C98.6936 107.871 98.7739 107.797 98.867 107.742L99.015 107.947Z" fill="#053527"/>
<path d="M102.468 109.059L100.611 110.117C100.294 110.298 100.052 110.561 100.262 110.93C100.472 111.299 100.775 111.255 101.143 111.045L102.997 109.989L103.123 110.21L101.264 111.269C100.784 111.543 100.359 111.561 100.064 111.035C99.778 110.535 99.985 110.179 100.464 109.906L102.345 108.835L102.468 109.059Z" fill="#053527"/>
<path d="M102.961 113.887C103.497 113.663 104.015 113.457 104.304 113.346V113.341C103.795 113.43 102.433 113.659 101.459 113.786L101.359 113.55C102.024 113.062 103.236 112.199 103.699 111.881V111.872C103.382 112.024 102.761 112.297 102.284 112.496L101.125 112.98L101.03 112.753L103.821 111.588L103.967 111.938C103.158 112.574 102.096 113.314 101.776 113.53C102.07 113.466 103.476 113.24 104.462 113.123L104.608 113.473L101.817 114.638L101.717 114.403L102.961 113.887Z" fill="#053527"/>
<path d="M103.974 116.601L103.691 115.618L102.479 115.967L102.792 117.055L102.561 117.083L102.188 115.783L105.094 114.947L105.461 116.223L105.239 116.287L104.939 115.254L103.909 115.554L104.192 116.537L103.974 116.601Z" fill="#053527"/>
<path d="M104.239 118.059L102.831 118.313L102.786 118.063L105.763 117.527L105.894 118.254C105.922 118.352 105.927 118.456 105.91 118.557C105.892 118.658 105.852 118.753 105.792 118.836C105.733 118.919 105.655 118.988 105.565 119.037C105.475 119.086 105.375 119.114 105.273 119.119C105.132 119.167 104.978 119.165 104.838 119.115C104.697 119.065 104.577 118.969 104.498 118.843C104.456 119.152 104.209 119.276 103.798 119.35L103.68 119.371C103.465 119.402 103.253 119.455 103.048 119.529L103.002 119.274C103.209 119.198 103.424 119.145 103.642 119.116L103.742 119.098C104.176 119.02 104.389 118.898 104.312 118.468L104.239 118.059ZM104.46 118.019L104.537 118.447C104.605 118.824 104.859 118.924 105.222 118.858C105.293 118.856 105.363 118.839 105.426 118.807C105.49 118.774 105.545 118.728 105.588 118.671C105.631 118.614 105.66 118.549 105.674 118.479C105.688 118.409 105.686 118.337 105.668 118.268L105.587 117.816L104.46 118.019Z" fill="#053527"/>
<path d="M70.862 147.785L70.254 148.812L69.98 148.727L71.785 145.727L72.14 145.837L71.956 149.337L71.662 149.246L71.739 148.054L70.862 147.785ZM71.755 147.791C71.81 146.862 71.843 146.291 71.877 146.042H71.867C71.735 146.305 71.399 146.88 70.997 147.559L71.755 147.791Z" fill="#053527"/>
<path d="M73.611 149.727L73.504 146.26L73.804 146.31C73.84 147.695 73.87 148.958 73.844 149.365C73.957 148.973 74.644 147.295 74.944 146.5L75.23 146.548C75.259 147.381 75.347 149.23 75.33 149.603H75.34C75.502 149.068 76.128 147.529 76.42 146.745L76.706 146.793L75.416 150.026L75.099 149.973C75.075 149.158 74.999 147.404 75.014 146.946H75.011C74.858 147.433 74.228 149.01 73.926 149.777L73.611 149.727Z" fill="#053527"/>
<path d="M77.76 149.068L77.448 150.22L77.162 150.211L78.101 146.837L78.473 146.848L79.231 150.275L78.923 150.265L78.679 149.096L77.76 149.068ZM78.623 148.835C78.423 147.925 78.308 147.369 78.274 147.117H78.263C78.205 147.405 78.035 148.049 77.829 148.811L78.623 148.835Z" fill="#053527"/>
<path d="M80.784 148.593L80.922 150.193L80.637 150.217L80.345 146.827L81.173 146.756C81.2858 146.736 81.4018 146.741 81.5123 146.771C81.6229 146.802 81.7251 146.857 81.8115 146.932C81.8979 147.008 81.9663 147.102 82.0116 147.207C82.0568 147.312 82.0778 147.426 82.073 147.541C82.112 147.704 82.0946 147.876 82.0239 148.029C81.9531 148.181 81.833 148.305 81.683 148.381C82.025 148.46 82.139 148.75 82.183 149.216L82.195 149.351C82.2078 149.595 82.2453 149.838 82.307 150.075L82.017 150.1C81.9536 149.86 81.9164 149.615 81.906 149.367L81.896 149.255C81.854 148.761 81.735 148.509 81.25 148.555L80.784 148.593ZM80.762 148.341L81.25 148.299C81.679 148.262 81.817 147.987 81.782 147.575C81.751 147.216 81.566 146.975 81.167 147.014L80.652 147.058L80.762 148.341Z" fill="#053527"/>
<path d="M83.162 146.513L83.856 146.367C84.592 146.213 85.056 146.667 85.27 147.709C85.508 148.841 85.33 149.533 84.499 149.709L83.862 149.843L83.162 146.513ZM84.091 149.535L84.43 149.464C85.091 149.325 85.184 148.75 84.982 147.787C84.782 146.86 84.443 146.504 83.84 146.631L83.496 146.703L84.091 149.535Z" fill="#053527"/>
<path d="M86.939 148.191C86.9593 148.273 86.9965 148.35 87.0481 148.417C87.0997 148.485 87.1646 148.54 87.2388 148.581C87.313 148.622 87.3949 148.647 87.4792 148.655C87.5636 148.663 87.6486 148.653 87.729 148.626C88.086 148.505 88.217 148.253 88.075 147.833C87.952 147.467 87.747 147.324 87.224 147.259C86.658 147.19 86.358 147.046 86.202 146.583C86.1664 146.481 86.1516 146.374 86.1583 146.266C86.1651 146.159 86.1932 146.054 86.2412 145.957C86.2892 145.861 86.3559 145.775 86.4376 145.705C86.5192 145.634 86.6141 145.581 86.7167 145.548C86.8192 145.515 86.9273 145.503 87.0345 145.513C87.1418 145.522 87.2461 145.553 87.3413 145.603C87.4365 145.654 87.5206 145.723 87.5887 145.806C87.6569 145.889 87.7076 145.986 87.738 146.089L87.469 146.18C87.4501 146.109 87.4171 146.042 87.3718 145.984C87.3266 145.925 87.2701 145.877 87.2057 145.841C87.1413 145.805 87.0704 145.782 86.997 145.774C86.9237 145.767 86.8496 145.774 86.779 145.795C86.7111 145.813 86.648 145.847 86.5943 145.892C86.5405 145.938 86.4973 145.994 86.4678 146.058C86.4383 146.122 86.4231 146.192 86.4233 146.262C86.4235 146.333 86.4391 146.402 86.469 146.466C86.583 146.802 86.787 146.911 87.269 146.966C87.918 147.047 88.196 147.255 88.351 147.713C88.4024 147.823 88.4288 147.943 88.4283 148.065C88.4278 148.186 88.4005 148.306 88.3482 148.416C88.2959 148.526 88.22 148.622 88.1259 148.699C88.0318 148.776 87.9219 148.831 87.804 148.861C87.6917 148.907 87.5708 148.928 87.4495 148.923C87.3283 148.918 87.2096 148.887 87.1015 148.832C86.9934 148.777 86.8986 148.699 86.8234 148.604C86.7482 148.508 86.6945 148.398 86.666 148.28L86.939 148.191Z" fill="#053527"/>
<path d="M89.925 146.443L89.814 146.204C94.2355 144.152 97.978 140.878 100.6 136.769C103.222 132.66 104.615 127.886 104.614 123.012C104.614 122.698 104.608 122.381 104.597 122.067L104.86 122.058C104.872 122.374 104.877 122.695 104.877 123.012C104.878 127.937 103.47 132.76 100.82 136.911C98.1698 141.063 94.3878 144.37 89.92 146.443" fill="#053527"/>
<path d="M68.087 146.393C63.6471 144.308 59.8927 141.002 57.2633 136.861C54.6338 132.721 53.2379 127.917 53.239 123.012C53.239 122.695 53.245 122.375 53.256 122.059L53.519 122.068C53.508 122.381 53.502 122.698 53.502 123.012C53.5014 127.867 54.8836 132.622 57.4869 136.72C60.0902 140.819 63.8068 144.091 68.202 146.154L68.087 146.393Z" fill="#053527"/>
<g clip-path="url(#clip1_302_117)">
<path d="M158.1 0.899985C157.83 0.614558 157.504 0.387455 157.143 0.23267C156.782 0.077885 156.393 -0.00130325 156 -1.50498e-05H122C121.607 -0.00130325 121.218 0.077885 120.857 0.23267C120.496 0.387455 120.17 0.614558 119.9 0.899985C119.615 1.17004 119.387 1.49568 119.233 1.85685C119.078 2.21802 118.999 2.60705 119 2.99998V29C118.999 29.3929 119.078 29.782 119.233 30.1431C119.387 30.5043 119.615 30.8299 119.9 31.1C120.17 31.3854 120.496 31.6125 120.857 31.7673C121.218 31.9221 121.607 32.0013 122 32H156C156.79 31.9807 157.541 31.6584 158.1 31.1C158.658 30.5415 158.981 29.7896 159 29V2.99998C159.001 2.60705 158.922 2.21802 158.767 1.85685C158.613 1.49568 158.385 1.17004 158.1 0.899985V0.899985ZM155.8 2.99998L139 13.9L122.25 2.99998H155.8ZM156 29H122V5.74998L139 16.9L156 5.74998V29Z" fill="white"/>
</g>
<g clip-path="url(#clip2_302_117)">
<path d="M152.75 74C148.529 73.9625 144.376 72.935 140.625 71C136.616 69.006 132.96 66.3714 129.8 63.2C126.629 60.0399 123.994 56.3835 122 52.375C120.065 48.6237 119.037 44.4707 119 40.25C118.993 39.953 119.048 39.6579 119.159 39.3827C119.271 39.1076 119.438 38.8582 119.65 38.65C119.858 38.4382 120.108 38.2712 120.383 38.1595C120.658 38.0477 120.953 37.9934 121.25 38H128.25C128.704 37.9949 129.143 38.165 129.475 38.475C129.836 38.8126 130.074 39.2615 130.15 39.75L131.5 46.05C131.568 46.4731 131.559 46.9049 131.475 47.325C131.399 47.6944 131.217 48.0335 130.95 48.3L125.95 53.35C127.699 56.2988 129.807 59.0195 132.225 61.45C134.56 63.7631 137.211 65.7328 140.1 67.3L144.85 62.4C145.161 62.048 145.557 61.7813 146 61.625C146.417 61.4759 146.868 61.4499 147.3 61.55L153.25 62.85C153.745 62.9506 154.191 63.2199 154.51 63.6119C154.829 64.004 155.002 64.4945 155 65V71.75C155.004 72.0466 154.949 72.341 154.837 72.6158C154.725 72.8906 154.56 73.1402 154.35 73.35C154.14 73.5597 153.891 73.7253 153.616 73.8369C153.341 73.9486 153.047 74.004 152.75 74ZM124.45 50.6L128.5 46.5L127.35 41H122C122.02 42.4445 122.221 43.8808 122.6 45.275C123.092 47.0909 123.71 48.8703 124.45 50.6V50.6ZM152 71V65.65L146.85 64.6L142.9 68.75C144.331 69.4057 145.821 69.9246 147.35 70.3C148.873 70.6883 150.43 70.9228 152 71" fill="white"/>
</g>
<g clip-path="url(#clip3_302_117)">
<path d="M0 67.666L16 83.666L32 67.666L29.9 65.566L17.5 77.966L17.5 1.52588e-05H14.5L14.5 77.966L2.1 65.566L0 67.666Z" fill="white"/>
</g>
<path d="M102.794 34.9407V12.3133H80.1669V15.2832L97.7031 15.2832L79.1062 33.8801L81.2275 36.0014L99.8244 17.4045L99.8244 34.9407L102.794 34.9407Z" stroke="#C3A25D"/>
<g clip-path="url(#clip4_302_117)">
<path d="M79 47L89.5 61L79 75H82.7L93.2 61L82.7 47H79ZM91.6 47L102.1 61L91.6 75H95.3L105.8 61L95.3 47H91.6Z" fill="#AE8D4A"/>
</g>
<g clip-path="url(#clip5_302_117)">
<path d="M36 67.666L52 83.666L68 67.666L65.9 65.566L53.5 77.966V1.52588e-05H50.5L50.5 77.966L38.1 65.566L36 67.666Z" fill="#C3A25D"/>
</g>
<defs>
<clipPath id="clip0_302_117">
<rect width="38.891" height="40.815" fill="white" transform="translate(0 93)"/>
</clipPath>
<clipPath id="clip1_302_117">
<rect width="40" height="32" fill="white" transform="translate(119)"/>
</clipPath>
<clipPath id="clip2_302_117">
<rect width="36" height="36" fill="white" transform="translate(119 38)"/>
</clipPath>
<clipPath id="clip3_302_117">
<rect width="32" height="83.666" fill="white"/>
</clipPath>
<clipPath id="clip4_302_117">
<rect width="26.8" height="28" fill="white" transform="translate(79 47)"/>
</clipPath>
<clipPath id="clip5_302_117">
<rect width="32" height="83.666" fill="white" transform="translate(36)"/>
</clipPath>
</defs>
</svg>
